<?xml version="1.0" encoding="utf-8"?>
<!-- Generator: Adobe Illustrator 22.0.1, SVG Export Plug-In . SVG Version: 6.00 Build 0)  -->
<svg version="1.1" id="Layer_1" xmlns="http://www.w3.org/2000/svg" xmlns:xlink="http://www.w3.org/1999/xlink" x="0px" y="0px"
	 width="357.7px" height="162.3px" viewBox="0 0 357.7 162.3" style="enable-background:new 0 0 357.7 162.3;" xml:space="preserve"
	>
<style type="text/css">
	.st0{fill:#FFFFFF;}
</style>
<title>jcu-logo-02</title>
<g>
	<path class="st0" d="M77.8,91.6c-2.7,1.5-6.5,2.5-10.8,2.5c-4.3,0-8.1-1-10.8-2.5c-2.7-1.5-6.5-2.5-10.8-2.5c-4.3,0-8.1,1-10.8,2.5
		c-2.7,1.5-6.5,2.5-10.8,2.5c-4.3,0-8.1-1-10.8-2.5c-2.7-1.5-6.5-2.5-10.8-2.5c-0.4,0-0.8,0-1.2,0v10c0,1.5,0.1,3,0.1,4.4
		c0.3,0,0.7,0,1,0c4.3,0,8.1,1,10.8,2.5c2.7,1.5,6.5,2.5,10.8,2.5c4.3,0,8.1-1,10.8-2.5c2.7-1.6,6.5-2.5,10.8-2.5
		c4.3,0,8.1,1,10.8,2.5c2.7,1.5,6.5,2.5,10.8,2.5c4.3,0,8.1-1,10.8-2.5c2.7-1.5,6.5-2.5,10.8-2.5c0.4,0,0.7,0,1.1,0
		c0.1-1.4,0.1-2.9,0.1-4.4v-10c-0.4,0-0.8,0-1.2,0C84.4,89.1,80.5,90.1,77.8,91.6"/>
	<path class="st0" d="M67.1,122.9c-4.3,0-8.1-1-10.8-2.5c-2.7-1.5-6.5-2.5-10.8-2.5c-4.3,0-8.1,1-10.8,2.5
		c-2.7,1.5-6.5,2.5-10.8,2.5c-4.3,0-8.1-1-10.8-2.5c-2.4-1.4-5.7-2.3-9.4-2.5c1.9,6.3,4.7,11.6,8,16.2c0.5,0.2,1,0.4,1.4,0.7
		c2.7,1.5,6.5,2.5,10.8,2.5c4.3,0,8.1-1,10.8-2.5c2.7-1.5,6.5-2.5,10.8-2.5c4.3,0,8.1,1,10.8,2.5c2.7,1.5,6.5,2.5,10.8,2.5
		c4.3,0,8.1-1,10.8-2.5c0.4-0.3,0.9-0.5,1.4-0.7c3.3-4.5,6.1-9.8,8-16.2c-3.7,0.2-7,1.1-9.4,2.5C75.1,121.9,71.3,122.9,67.1,122.9"
		/>
	<path class="st0" d="M56.3,149.1c-2.7-1.5-6.5-2.5-10.8-2.5c-4.3,0-8.1,1-10.8,2.5c-1.3,0.7-2.9,1.3-4.6,1.8
		c6.2,4.1,11.9,7.2,15.4,10.1c3.5-2.9,9.2-5.9,15.4-10.1C59.1,150.5,57.6,149.9,56.3,149.1"/>
	<path class="st0" d="M77.8,62.9c-2.7,1.5-6.5,2.5-10.8,2.5c-4.3,0-8.1-1-10.8-2.5c-2.7-1.5-6.5-2.5-10.8-2.5c-4.3,0-8.1,1-10.8,2.5
		c-2.7,1.5-6.5,2.5-10.8,2.5c-4.3,0-8.1-1-10.8-2.5c-2.7-1.5-6.5-2.5-10.8-2.5c-0.4,0-0.8,0-1.2,0v14.4c0.4,0,0.8,0,1.2,0
		c4.3,0,8.1,1,10.8,2.5c2.7,1.6,6.5,2.5,10.8,2.5c4.3,0,8.1-1,10.8-2.5c2.7-1.5,6.5-2.5,10.8-2.5c4.3,0,8.1,1,10.8,2.5
		c2.7,1.6,6.5,2.5,10.8,2.5c4.3,0,8.1-1,10.8-2.5c2.7-1.5,6.5-2.5,10.8-2.5c0.4,0,0.8,0,1.2,0V60.4c-0.4,0-0.8,0-1.2,0
		C84.4,60.4,80.5,61.3,77.8,62.9"/>
	<path class="st0" d="M45.5,33.3c-8,0-14.5,6.5-14.5,14.5c0,0.7,0.1,1.4,0.2,2.1c1.3-0.4,2.5-0.9,3.6-1.5C37.4,47,41.2,46,45.5,46
		c4.3,0,8.1,1,10.8,2.5c1,0.6,2.2,1.1,3.6,1.5c0.1-0.7,0.2-1.4,0.2-2.1C60,39.9,53.5,33.3,45.5,33.3L45.5,33.3z M25.7,37.6
		c-0.3,0-0.6,0.1-0.9,0.2c-0.8,0.1-1.5,0.1-2.2,0.1c-0.8,0-1.6-0.2-2.1-0.5c-0.1,0.8,0.8,1.8,1.6,2.3c0.5,0.4,1.1,0.7,1.7,0.9
		c0.2,0.1,0.5,0.1,0.7,0.2c0.7,0.3,1.4,0.7,2,1.2c0.7,0.6,1.3,1.5,1.9,2.2c0.5-2.1,1.3-4.1,2.5-5.9c-0.8-0.3-1.6-0.6-2.5-0.7
		C27.6,37.5,26.6,37.5,25.7,37.6L25.7,37.6z M78.7,47.9L62.7,45c0.2,0.9,0.3,1.9,0.3,2.9c0,1-0.1,1.9-0.3,2.9L78.7,47.9L78.7,47.9z
		 M28.2,45l-15.9,2.9l15.9,2.9c-0.1-0.9-0.3-1.9-0.3-2.9C28,46.9,28.1,45.9,28.2,45L28.2,45z M66.7,41.1c0.2-0.2,0.3-0.5,0.5-0.7
		c0.4-0.6,0.9-1.2,1.5-1.7c0.6-0.5,1.3-1,1.9-1.1c-0.4-0.6-1.8-0.7-2.8-0.5c-0.6,0.1-1.3,0.3-1.8,0.6c-0.2,0.1-0.4,0.3-0.7,0.4
		c-0.7,0.3-1.5,0.5-2.3,0.5c-1,0.1-2-0.1-2.9-0.2h0c1.1,1.8,2,3.8,2.4,5.9c0.7-0.3,1.5-0.7,2.3-1.3C65.5,42.5,66.2,41.9,66.7,41.1
		L66.7,41.1z M35.5,33.5l-10-5.6l5.6,10C32.3,36.2,33.8,34.7,35.5,33.5L35.5,33.5z M59.9,37.9l5.6-10l-10,5.6
		C57.2,34.7,58.7,36.2,59.9,37.9L59.9,37.9z M48.4,30.6L45.5,1.4l-2.9,29.2c1-0.2,1.9-0.3,2.9-0.3C46.5,30.4,47.5,30.5,48.4,30.6
		L48.4,30.6z M35.3,27.3c0.1,0.2,0.3,0.4,0.4,0.7c0.3,0.7,0.5,1.5,0.6,2.3c0.1,1-0.1,2-0.2,2.9v0c1.8-1.2,3.8-2,5.9-2.4
		c-0.3-0.7-0.7-1.5-1.3-2.3c-0.5-0.7-1.1-1.3-1.9-1.9c-0.2-0.2-0.5-0.3-0.7-0.5c-0.6-0.5-1.2-1-1.7-1.5c-0.5-0.6-1-1.3-1.1-1.9
		c-0.6,0.5-0.7,1.8-0.5,2.8C34.8,26.2,35,26.8,35.3,27.3L35.3,27.3z M55.8,30.7c0.1-0.8,0.1-1.8,0-2.7c0-0.3-0.1-0.6-0.2-0.9
		c-0.1-0.8-0.2-1.5-0.1-2.2c0-0.8,0.2-1.7,0.5-2.2c-0.8-0.1-1.8,0.8-2.3,1.6c-0.4,0.6-0.7,1.1-0.9,1.7c-0.1,0.2-0.1,0.5-0.2,0.7
		c-0.3,0.7-0.7,1.4-1.2,2c-0.7,0.7-1.5,1.3-2.2,1.9c0,0,0,0,0,0c2.1,0.5,4.1,1.3,5.9,2.5C55.3,32.5,55.6,31.6,55.8,30.7L55.8,30.7z"
		/>
	<path class="st0" d="M109,67.1c0-4.4-0.1-5.2-5.3-6v-0.6h13.8v0.6c-4.8,0.6-4.9,1.8-4.9,6v14.3c0,7.8-0.9,9.5-9.6,13.2l-0.3-0.7
		c5.9-2.8,6.4-7.1,6.4-14.3V67.1L109,67.1z"/>
	<path class="st0" d="M124.1,76.3c-0.7,2-2.4,6.2-2.4,8.1c0,2.4,2.8,2.4,4.6,2.7v0.6h-11v-0.6c3.6-1,3.9-1.8,5.2-4.9l4.5-11.8
		l2.4-6.5c0.4-1,0.9-2,0.4-2.8c1.1-0.4,2.1-1.2,2.9-2.2l8.8,23.4c1.1,2.9,1.8,4.1,5,4.7v0.6h-11.7v-0.6c1.4-0.3,3.1-0.8,3.1-2.6
		c0-1.7-1.5-5.4-2.6-8.2H124.1L124.1,76.3z M128.5,64.1l-3.8,10.4h7.9L128.5,64.1L128.5,64.1z"/>
	<path class="st0" d="M163.8,81.9L171,66c1-2.2,1.6-4.2,0.7-4.8l0.1-0.6h8.8v0.6c-2.6,0.5-4.1,1.5-4,4.3l0.9,14.5
		c0.4,5.6,0.4,6.4,4.7,7.2v0.6h-13.1v-0.6c3.1-0.5,5-0.8,4.8-4.4l-1.1-17.5h-0.1l-10.2,22.4h-0.4l-9.5-21.5h-0.1
		c-0.6,6.1-1,10.5-1.2,16.7c-0.1,1.6,0,3.4,4.8,4.2v0.6H145v-0.6c3.6-0.6,3.9-2.3,4.5-5.6l1.5-11.2l0.5-5.4c0.2-2.6-2-3.6-4.4-3.8
		v-0.6h8.6l0,0.4c-0.9,0.9,0.2,3.3,0.5,4L163.8,81.9L163.8,81.9z"/>
	<path class="st0" d="M183.9,87.1c4.8-0.6,4.8-1.8,5-6V67.1c-0.1-4.1-0.2-5.3-5-6v-0.6h21.5l-0.5,6.2h-0.6c-0.3-5.2-4-5.2-8-5.2
		h-3.9v11.4h4.2c3,0,5.3-0.2,5.7-3.7h0.6v8.9h-0.6c-0.5-3.5-2.7-3.6-5.7-3.6h-4.2v6.6c0,2.4-0.6,5.6,6,5.6c5,0,7.5-1.9,8.5-7h0.6
		c0,3-0.6,5.5-1.4,7.9h-22.2V87.1L183.9,87.1z"/>
	<path class="st0" d="M225.7,67.6h-0.6c-0.6-3.2-1.7-6.4-5.6-6.4c-2.6,0-4.7,1.8-4.7,4.4c0,6.9,12.6,6.7,12.6,14.7
		c0,5.2-5.1,7.8-9.7,7.8c-2.4,0-5-0.7-7-2l-1.2-6.8h0.7c1,3.8,3.7,7.6,8.1,7.6c3,0,5.3-1.8,5.3-4.9c0-7.1-12.2-6.5-12.2-14.5
		c0-4.7,4.6-7.6,8.9-7.6c2,0,4.1,0.6,5.8,1.6L225.7,67.6L225.7,67.6z"/>
	<path class="st0" d="M261.1,68.8h-0.6c-0.8-4.5-3.4-7.8-8.2-7.8c-7.3,0-11.4,6-11.4,12.9c0,7.9,6,13.3,11.8,13.3
		c5.2,0,7.3-3.8,9.1-8.2l0.6,0.2c-0.5,2.4-1.2,4.8-2.2,7.2c-2.6,1.2-5.3,1.7-8.2,1.7c-8.4,0-15.8-4.8-15.8-13.8
		c0-7.1,5.6-14.3,16.1-14.3c3,0,6.1,0.6,8.8,2.2V68.8L261.1,68.8z"/>
	<path class="st0" d="M293.7,74.1c0,8.6-6.2,14.1-14.6,14.1c-8.4,0-14.6-5.5-14.6-14.1c0-8.5,6.2-14,14.6-14
		C289.3,60.1,293.7,67,293.7,74.1 M269.1,73.1c0,6.2,3.3,14.1,10.5,14.1c6.6,0,9.5-6.7,9.5-12.4C289,67.7,284.9,61,278.7,61
		C271.9,61,269.1,67.7,269.1,73.1"/>
	<path class="st0" d="M325.8,74.1c0,8.6-6.2,14.1-14.6,14.1c-8.4,0-14.6-5.5-14.6-14.1c0-8.5,6.2-14,14.6-14
		C321.4,60.1,325.8,67,325.8,74.1 M301.2,73.1c0,6.2,3.3,14.1,10.5,14.1c6.6,0,9.5-6.7,9.5-12.4C321.1,67.7,317,61,310.8,61
		C304,61,301.2,67.7,301.2,73.1"/>
	<path class="st0" d="M335,81.2c0.1,4.1,0.2,5.3,5.3,6v0.6h-13.8v-0.6c4.8-0.6,4.8-1.8,5-6V67.1c-0.1-4.1-0.2-5.3-5-6v-0.6h12.7v0.6
		c-4.1,0.6-4.1,1.8-4.2,6V81.2L335,81.2z M353.1,60.5v0.6c-4.6,0.5-7.6,4.4-10.6,7.4l-3.8,4l8.1,9c2.4,2.7,5.3,5.1,8.9,6.1l-0.2,0.6
		c-7-0.6-8.1-0.8-11.8-4.9l-8.2-8.9l6.4-7c4.2-4.7,3.4-6,0.7-6.3v-0.6H353.1L353.1,60.5z"/>
	<path class="st0" d="M134.9,98.1v0.6c-3.6,0.4-3.9,2.6-4,7.9l-0.2,8.8c-0.1,5.2-2.3,10.4-11.2,10.4c-12.4,0-11.1-9-11.1-12.1v-9
		c-0.1-4.1-0.2-5.3-5-6v-0.6h13.8v0.6c-5.2,0.8-5.3,1.6-5.3,6v8.2c0,0.8-1.3,11.1,9.7,11.1c8.6,0,7.8-8.2,7.8-13.1v-4.2
		c0-5.1-0.4-7.4-6-7.9v-0.6H134.9L134.9,98.1z"/>
	<path class="st0" d="M162.7,119l-0.2-14.6c0-3.8-1.1-4.9-5.6-5.7v-0.6h10.9v0.6c-2.8,0.4-3.3,1.9-3.6,4.5c-0.6,4.4-0.4,14-0.2,22.7
		l-0.5,0.1c-6.4-7.6-13.5-14.6-20.3-21.8v7.4c0,9.9-0.2,11.9,5.6,13.1v0.6h-11.9v-0.6c5.4-0.6,5.2-4.2,5.2-13.3v-6
		c0-4-0.6-5.6-5.7-6.7v-0.6h6.6L162.7,119L162.7,119z"/>
	<path class="st0" d="M178,118.7c0.1,4.1,0.2,5.3,5,6v0.6h-13.4v-0.6c4.8-0.6,4.8-1.8,5-6v-14.1c-0.1-4.1-0.2-5.3-5-6v-0.6h13.4v0.6
		c-4.8,0.6-4.8,1.8-5,6V118.7L178,118.7z"/>
	<path class="st0" d="M213.8,98.1v0.6c-3.8,0.3-4.9,3.5-7.4,9.3l-7.6,18.2h-0.6l-9-21.6c-1.2-2.9-2.1-5.5-5.7-5.9v-0.6h12.7v0.6
		c-5.6,0.6-3.8,3.8-2.8,6.3l6.4,15.4l4.7-11.3c3.4-8.2,4.1-9.5-2-10.4v-0.6H213.8L213.8,98.1z"/>
	<path class="st0" d="M214.2,124.6c4.8-0.6,4.8-1.8,5-6v-14.1c-0.1-4.1-0.2-5.3-5-6v-0.6h21.5l-0.5,6.2h-0.6c-0.3-5.2-4-5.2-8-5.2
		h-3.9v11.4h4.2c3,0,5.3-0.2,5.7-3.7h0.6v8.9h-0.6c-0.5-3.5-2.7-3.6-5.7-3.6h-4.2v6.6c0,2.4-0.6,5.6,6,5.6c5,0,7.5-1.9,8.5-7h0.6
		c0,3-0.6,5.5-1.4,7.9h-22.2V124.6L214.2,124.6z"/>
	<path class="st0" d="M244.3,106.3c0-6.1-0.2-7-4.7-7.4v-0.6l9.8-0.3c10.1-0.3,10.9,4.6,10.9,6.5c0,3.4-2.1,5.3-5,6.6l0.2,0.3
		c3.1,5.4,6.9,12.3,13.5,13.6l-0.1,0.6c-4.2-0.2-7.4-0.1-9.7-2.5c-2.6-2.8-4.7-6.3-5.6-8c-1.6-3.3-3-2.4-5.8-2.8v6.4
		c0,4.4,0.1,5.2,5.6,6v0.6h-14v-0.6c4.8-0.6,4.8-1.8,5-6V106.3L244.3,106.3z M247.8,111.6c3.8,0,8.3-1.8,8.3-6.2
		c0-4.7-4.1-6.6-8.3-6.5V111.6L247.8,111.6z"/>
	<path class="st0" d="M284.1,105.1h-0.6c-0.6-3.2-1.7-6.4-5.6-6.4c-2.6,0-4.7,1.8-4.7,4.4c0,6.9,12.6,6.7,12.6,14.7
		c0,5.2-5.1,7.8-9.7,7.8c-2.4,0-5-0.7-7-2l-1.2-6.8h0.7c1,3.8,3.7,7.6,8.1,7.6c3,0,5.3-1.8,5.3-4.9c0-7.1-12.2-6.5-12.2-14.5
		c0-4.7,4.6-7.6,8.9-7.6c2,0,4.1,0.6,5.8,1.6L284.1,105.1L284.1,105.1z"/>
	<path class="st0" d="M295.8,118.7c0.1,4.1,0.2,5.3,5,6v0.6h-13.4v-0.6c4.8-0.6,4.8-1.8,5-6v-14.1c-0.1-4.1-0.2-5.3-5-6v-0.6h13.4
		v0.6c-4.8,0.6-4.8,1.8-5,6V118.7L295.8,118.7z"/>
	<path class="st0" d="M327.1,96.8h0.3l0.6,7.5l-0.6,0.1c-1.4-5-3.6-5.2-8.2-5.2h-2.4v18.5c0,5,0.2,6.3,5.6,6.9v0.6h-14.7v-0.6
		c5.4-0.6,5.6-2,5.6-6.9V99.3H311c-4.6,0-6.8,0.2-8.2,5.2l-0.6-0.1l0.6-7.5h0.3l0.4,0.4c1,0.9,1.2,0.9,2.5,0.9h18.3
		c1.3,0,1.5,0,2.5-0.9L327.1,96.8L327.1,96.8z"/>
	<path class="st0" d="M354.4,98.1v0.6c-3.5,0.3-5.2,2.2-6.9,5.1l-4.7,9.3v4.5c0.1,4.6,0.2,6.2,5.3,7v0.6H334v-0.6
		c5.1-0.8,5.2-2.4,5.3-7v-3.2l-4.2-9.1c-1.5-3.4-2.6-6.2-6.6-6.7v-0.6h11v0.6c-3.3,0.4-2.8,1.8-1.6,4.6l4,8.6l3.5-6.6
		c2.5-4.6,2.2-6.2-1.3-6.6v-0.6H354.4L354.4,98.1z"/>
	<polygon class="st0" points="108.1,133.1 351.9,133.1 351.9,133.9 108.1,133.9 108.1,133.1 	"/>
	<path class="st0" d="M121.3,152.7L118,145l-3.3,7.7H121.3L121.3,152.7z M116.5,140.9h3.2l8.5,19.5h-3.6l-2-4.7h-9.2l-2,4.7h-3.5
		L116.5,140.9L116.5,140.9z"/>
	<path class="st0" d="M129.3,152.2v-11.1h3.4v11c0,3.6,1.9,5.5,4.9,5.5c3,0,4.9-1.8,4.9-5.4v-11.1h3.4v11c0,5.8-3.3,8.7-8.3,8.7
		C132.5,160.7,129.3,157.8,129.3,152.2L129.3,152.2z"/>
	<path class="st0" d="M147.9,157.6l2-2.4c1.9,1.6,3.7,2.5,6.1,2.5c2.1,0,3.4-1,3.4-2.4v-0.1c0-1.4-0.8-2.1-4.4-3
		c-4.1-1-6.4-2.2-6.4-5.8v-0.1c0-3.3,2.8-5.6,6.6-5.6c2.8,0,5.1,0.9,7,2.4l-1.8,2.6c-1.7-1.3-3.5-2-5.3-2c-2,0-3.2,1-3.2,2.3v0.1
		c0,1.5,0.9,2.2,4.6,3c4.1,1,6.2,2.5,6.2,5.7v0.1c0,3.6-2.8,5.8-6.9,5.8C153,160.7,150.2,159.7,147.9,157.6L147.9,157.6z"/>
	<polygon class="st0" points="170.8,144.2 164.7,144.2 164.7,141.1 180.4,141.1 180.4,144.2 174.3,144.2 174.3,160.4 170.8,160.4 
		170.8,144.2 	"/>
	<path class="st0" d="M191.8,150.7c2.4,0,4-1.3,4-3.2v-0.1c0-2.1-1.5-3.2-4-3.2h-5v6.5H191.8L191.8,150.7z M183.4,141.1h8.6
		c2.4,0,4.3,0.7,5.6,1.9c1,1.1,1.6,2.5,1.6,4.2v0.1c0,3.2-1.9,5.1-4.6,5.9l5.2,7.3h-4l-4.8-6.7h-4.3v6.7h-3.4V141.1L183.4,141.1z"/>
	<path class="st0" d="M216.9,152.7l-3.3-7.7l-3.3,7.7H216.9L216.9,152.7z M212,140.9h3.2l8.5,19.5h-3.6l-2-4.7H209l-2,4.7h-3.5
		L212,140.9L212,140.9z"/>
	<polygon class="st0" points="227.2,141.1 230.6,141.1 230.6,157.3 240.8,157.3 240.8,160.4 227.2,160.4 227.2,141.1 	"/>
	<polygon class="st0" points="243.9,141.1 247.3,141.1 247.3,160.4 243.9,160.4 243.9,141.1 	"/>
	<path class="st0" d="M264.1,152.7l-3.3-7.7l-3.3,7.7H264.1L264.1,152.7z M259.2,140.9h3.2l8.5,19.5h-3.6l-2-4.7h-9.2l-2,4.7h-3.5
		L259.2,140.9L259.2,140.9z"/>
</g>
</svg>
